<?xml version="1.0" encoding="UTF-8"?>
<svg xmlns="http://www.w3.org/2000/svg" xmlns:xlink="http://www.w3.org/1999/xlink" width="153px" height="41px" viewBox="0 0 153 41" version="1.1">
<g id="surface1">
<path style=" stroke:none;fill-rule:nonzero;fill:rgb(0%,0%,0%);fill-opacity:1;" d="M 3.046875 8.695312 L 3.046875 16.625 L 3.9375 17.949219 C 4.417969 18.691406 4.824219 19.378906 4.824219 19.480469 C 4.824219 19.609375 5.992188 21.445312 6.78125 22.589844 C 6.910156 22.71875 7.113281 23.074219 7.265625 23.332031 C 7.519531 23.789062 8.128906 23.816406 24.40625 23.816406 L 41.273438 23.816406 L 41.347656 12.289062 L 41.398438 0.765625 L 33.78125 0.765625 L 33.78125 16.320312 L 10.667969 16.320312 L 10.667969 0.765625 L 3.046875 0.765625 Z M 3.046875 8.695312 "/>
<path style=" stroke:none;fill-rule:nonzero;fill:rgb(0%,0%,0%);fill-opacity:1;" d="M 58.011719 2.347656 C 57.476562 3.238281 56.867188 4.234375 56.6875 4.589844 C 56.511719 4.945312 56.207031 5.40625 56.027344 5.609375 C 55.851562 5.8125 55.367188 6.527344 54.988281 7.191406 L 54.300781 8.414062 L 85.847656 8.414062 L 86.101562 7.777344 C 86.226562 7.417969 86.457031 6.984375 86.609375 6.808594 C 87.015625 6.324219 89.402344 2.550781 89.402344 2.398438 C 89.402344 2.320312 89.582031 2.089844 89.785156 1.886719 C 89.988281 1.65625 90.164062 1.324219 90.164062 1.121094 C 90.164062 0.816406 87.929688 0.765625 74.570312 0.765625 L 59 0.765625 Z M 58.011719 2.347656 "/>
<path style=" stroke:none;fill-rule:nonzero;fill:rgb(0%,0%,0%);fill-opacity:1;" d="M 95.496094 2.855469 C 94.863281 3.851562 94.304688 4.792969 94.253906 4.921875 C 94.203125 5.074219 94.050781 5.328125 93.921875 5.480469 C 93.414062 6.070312 91.6875 8.949219 91.6875 9.179688 C 91.6875 9.332031 91.585938 9.433594 91.460938 9.433594 C 91.332031 9.433594 91.15625 9.636719 91.078125 9.894531 C 90.925781 10.351562 89.378906 12.902344 88.894531 13.4375 C 88.765625 13.617188 88.640625 13.820312 88.640625 13.894531 C 88.640625 13.972656 88.03125 14.992188 87.292969 16.140625 C 86.53125 17.289062 85.769531 18.511719 85.59375 18.867188 C 85.414062 19.226562 85.1875 19.554688 85.109375 19.632812 C 85.035156 19.710938 84.753906 20.09375 84.5 20.527344 C 84.273438 20.933594 83.433594 22.308594 82.644531 23.585938 C 81.882812 24.835938 81.121094 26.109375 80.945312 26.390625 C 80.765625 26.644531 80.488281 27.027344 80.335938 27.230469 C 80.15625 27.410156 80.003906 27.691406 80.003906 27.816406 C 80.003906 27.945312 79.625 28.609375 79.191406 29.269531 C 78.734375 29.933594 78.226562 30.722656 78.074219 30.980469 C 77.796875 31.464844 77.390625 31.488281 66.949219 31.566406 C 59.128906 31.589844 56.128906 31.539062 56.128906 31.335938 C 56.128906 31.183594 56.484375 30.546875 56.890625 29.910156 C 57.324219 29.296875 57.65625 28.683594 57.65625 28.582031 C 57.65625 28.480469 57.882812 28.175781 58.164062 27.917969 C 58.441406 27.664062 58.671875 27.359375 58.671875 27.230469 C 58.671875 27.128906 59.101562 26.339844 59.609375 25.496094 L 60.574219 23.96875 L 67.863281 23.96875 C 75.128906 23.96875 75.152344 23.96875 75.558594 23.382812 C 76.5 22.105469 77.71875 20.09375 77.71875 19.863281 C 77.71875 19.734375 77.847656 19.632812 77.972656 19.632812 C 78.125 19.632812 78.226562 19.53125 78.226562 19.378906 C 78.226562 19.25 78.632812 18.511719 79.117188 17.722656 L 80.03125 16.320312 L 64.613281 16.371094 L 49.195312 16.445312 L 48.789062 17.210938 C 48.5625 17.644531 47.875 18.792969 47.242188 19.761719 C 45.691406 22.183594 45.640625 22.257812 45.132812 23.175781 L 44.675781 23.96875 L 48.128906 23.96875 C 50.007812 23.96875 51.558594 24.042969 51.558594 24.121094 C 51.558594 24.222656 50.972656 25.140625 50.289062 26.160156 C 49.578125 27.179688 49.019531 28.097656 49.019531 28.175781 C 49.019531 28.277344 48.6875 28.835938 48.257812 29.449219 C 47.851562 30.0625 47.496094 30.671875 47.496094 30.828125 C 47.496094 30.980469 47.394531 31.105469 47.242188 31.105469 C 47.113281 31.105469 46.9375 31.386719 46.835938 31.746094 C 46.757812 32.101562 46.554688 32.484375 46.378906 32.585938 C 46.226562 32.6875 45.871094 33.171875 45.617188 33.65625 C 45.335938 34.140625 44.472656 35.621094 43.660156 36.894531 L 42.1875 39.265625 L 81.933594 39.265625 L 82.671875 37.863281 C 83.105469 37.097656 83.511719 36.460938 83.636719 36.460938 C 83.738281 36.460938 83.816406 36.332031 83.816406 36.207031 C 83.816406 35.976562 85.871094 32.609375 86.53125 31.71875 C 86.632812 31.589844 86.914062 31.132812 87.140625 30.699219 C 87.625 29.832031 90.292969 25.546875 91.816406 23.203125 C 92.398438 22.285156 93.441406 20.628906 94.101562 19.503906 C 94.761719 18.382812 95.574219 17.109375 95.90625 16.648438 C 96.234375 16.214844 96.515625 15.707031 96.515625 15.527344 C 96.515625 15.273438 96.617188 15.273438 96.871094 15.554688 C 97.25 15.960938 99.535156 19.582031 100.398438 21.214844 C 100.703125 21.75 101.007812 22.183594 101.136719 22.183594 C 101.238281 22.183594 101.339844 22.335938 101.339844 22.539062 C 101.339844 22.71875 101.515625 23.023438 101.71875 23.203125 C 102.457031 23.816406 102.078125 23.96875 99.890625 23.96875 L 97.65625 23.96875 L 96.769531 25.523438 C 96.285156 26.363281 95.703125 27.257812 95.496094 27.484375 C 95.292969 27.742188 94.835938 28.480469 94.480469 29.144531 C 94.152344 29.804688 93.796875 30.34375 93.695312 30.34375 C 93.617188 30.34375 93.414062 30.621094 93.261719 30.980469 L 92.957031 31.617188 L 106.902344 31.617188 L 108.296875 33.835938 C 109.0625 35.085938 110.128906 36.792969 110.660156 37.660156 L 111.625 39.265625 L 119.5 39.265625 L 119.421875 20.144531 L 119.371094 1.019531 L 112.007812 1.019531 L 112.007812 13.003906 C 112.007812 19.609375 111.90625 24.988281 111.804688 24.988281 C 111.675781 24.988281 111.371094 24.554688 111.09375 24.019531 C 110.839844 23.507812 110.558594 23.023438 110.484375 22.949219 C 110.40625 22.871094 110 22.257812 109.59375 21.570312 C 109.164062 20.882812 108.628906 20.042969 108.402344 19.660156 C 108.144531 19.300781 107.765625 18.613281 107.511719 18.152344 C 107.28125 17.722656 107.003906 17.339844 106.875 17.339844 C 106.773438 17.339844 106.671875 17.210938 106.671875 17.058594 C 106.671875 16.90625 106.316406 16.242188 105.886719 15.578125 C 105.429688 14.941406 104.335938 13.207031 103.449219 11.730469 C 102.558594 10.25 101.210938 8.082031 100.449219 6.882812 C 99.714844 5.6875 98.621094 3.953125 98.0625 3.007812 C 97.480469 2.066406 96.921875 1.25 96.820312 1.171875 C 96.71875 1.121094 96.109375 1.859375 95.496094 2.855469 Z M 95.496094 2.855469 "/>
<path style=" stroke:none;fill-rule:nonzero;fill:rgb(0%,0%,0%);fill-opacity:1;" d="M 142.332031 1.25 C 142.28125 1.300781 142.230469 4.71875 142.230469 8.847656 L 142.230469 16.320312 L 121.40625 16.320312 L 121.734375 17.007812 C 121.886719 17.414062 122.496094 18.410156 123.054688 19.25 C 123.640625 20.09375 124.351562 21.289062 124.679688 21.929688 C 125.796875 24.121094 125.0625 23.96875 134.128906 23.96875 L 142.230469 23.96875 L 142.28125 31.539062 L 142.359375 39.140625 L 146.117188 39.214844 L 149.851562 39.292969 L 149.800781 20.269531 L 149.722656 1.25 L 146.089844 1.199219 C 144.085938 1.171875 142.382812 1.199219 142.332031 1.25 Z M 142.332031 1.25 "/>
<path style=" stroke:none;fill-rule:nonzero;fill:rgb(0%,0%,0%);fill-opacity:1;" d="M 3.046875 35.441406 L 3.046875 39.265625 L 36.953125 39.265625 L 37.460938 38.425781 C 37.714844 37.992188 38.046875 37.40625 38.148438 37.175781 C 38.25 36.945312 38.785156 36.078125 39.34375 35.238281 C 39.925781 34.394531 40.382812 33.632812 40.382812 33.503906 C 40.382812 33.375 40.613281 32.992188 40.890625 32.636719 C 41.171875 32.28125 41.398438 31.921875 41.398438 31.796875 C 41.398438 31.695312 32.765625 31.617188 22.222656 31.617188 L 3.046875 31.617188 Z M 3.046875 35.441406 "/>
</g>
</svg>
