<?xml version="1.0" encoding="utf-8"?>
<svg viewBox="0 0 602 161" width="602" height="161" xmlns="http://www.w3.org/2000/svg">
  <path d="M 13.134 36.393 C 13.235 70.526 11.607 82.832 17.963 90.002 C 21.779 94.307 27.874 95.192 31.412 95.379 C 41.456 95.909 31.945 95.413 96.884 95.793 L 163.134 95.443 L 163.134 50.443 L 163.134 5.443 L 148.634 5.443 L 134.134 5.443 L 134.134 35.953 L 134.134 66.463 L 88.384 66.203 L 42.634 65.943 L 42.369 35.693 L 42.105 5.443 L 27.619 5.443 L 13.134 5.443 L 13.134 36.393 M 216.134 34.463 C 216.134 35.049 239.632 35.514 277.539 35.678 C 311.311 35.824 338.735 35.606 338.48 35.193 C 338.225 34.781 356.134 8.377 356.134 7.336 C 356.134 5.499 354.299 5.443 294.134 5.443 C 234.148 5.443 232.399 6.047 231.598 7.103 M 380.663 7.677 C 375.79 7.647 374.099 14.369 374.118 14.523 C 374.137 14.677 377.456 12.118 377.772 12.943 C 378.151 13.929 377.74 14.443 376.574 14.443 C 375.599 14.443 375.087 14.73 375.438 15.08 C 375.788 15.431 375.188 16.963 374.104 18.484 C 373.021 20.006 372.134 21.729 372.134 22.312 C 372.134 22.895 371.221 23.861 370.106 24.458 C 368.991 25.055 368.322 25.938 368.621 26.421 C 369.146 27.271 363.645 36.317 361.85 37.555 C 361.362 37.891 360.957 38.566 360.949 39.055 C 360.941 39.543 360.496 39.819 359.96 39.668 C 359.424 39.517 359.265 39.845 359.606 40.398 C 360.442 41.751 358.278 45.65 357.095 44.919 C 356.579 44.6 356.425 45.037 356.752 45.891 C 357.08 46.745 356.85 47.443 356.241 47.443 C 355.632 47.443 355.134 48.145 355.134 49.002 C 355.134 49.926 354.664 50.27 353.979 49.848 C 353.287 49.419 353.096 49.572 353.502 50.229 C 353.874 50.831 353.156 52.317 351.906 53.53 C 350.656 54.744 350.309 55.413 351.134 55.016 C 351.959 54.619 351.76 55.003 350.693 55.869 C 349.625 56.735 349.175 57.457 349.693 57.475 C 350.21 57.492 349.817 58.126 348.817 58.884 C 347.818 59.641 347.067 60.639 347.149 61.102 C 347.354 62.267 342.837 69.443 341.898 69.443 C 341.478 69.443 341.134 70.083 341.134 70.866 C 341.134 71.649 339.896 73.76 338.384 75.558 C 336.872 77.355 335.734 78.852 335.856 78.884 C 336.835 79.143 334.574 83.443 333.458 83.443 C 332.665 83.443 332.294 83.893 332.634 84.443 C 332.974 84.993 332.775 85.443 332.193 85.443 C 331.611 85.443 331.237 85.78 331.363 86.193 C 331.694 87.274 327.861 93.443 326.859 93.443 C 326.396 93.443 326.236 93.798 326.504 94.232 C 326.772 94.667 325.674 96.984 324.063 99.383 C 322.452 101.782 321.134 104.126 321.134 104.593 C 321.134 105.061 320.473 105.443 319.665 105.443 C 318.774 105.443 318.422 106.03 318.769 106.935 C 319.096 107.786 318.653 108.69 317.738 109.042 C 316.856 109.38 316.134 110.483 316.134 111.493 C 316.134 112.503 315.346 113.918 314.384 114.636 C 313.422 115.355 312.497 116.618 312.329 117.443 C 312.161 118.268 311.381 119.437 310.595 120.042 C 309.808 120.646 309.455 121.431 309.81 121.786 C 310.165 122.14 309.638 123.333 308.64 124.437 C 306.876 126.386 305.598 126.443 263.953 126.443 C 221.083 126.443 221.083 126.443 222.585 123.538 C 223.411 121.94 238.945 98.519 239.424 97.443 C 240.24 95.609 240.788 95.443 268.818 95.443 C 296.507 95.443 297.76 95.361 299.412 93.432 C 300.359 92.325 315.495 67.295 314.949 66.465 C 314.776 66.202 287.741 65.977 254.872 65.965 C 197.13 65.944 195.686 66.321 194.51 67.834 C 193.788 68.762 181.207 89.503 180.436 90.662 C 177.275 95.412 177.839 95.387 191.614 95.387 C 202.425 95.387 204.134 95.687 204.134 96.943 C 204.134 97.768 168.878 153.053 168.234 154.256 C 167.064 156.443 167.064 156.443 245.17 156.443 C 310.272 156.443 323.507 156.213 324.658 155.062 C 325.417 154.303 381.88 61.835 382.505 62.516 C 384.309 64.481 403.745 95.836 403.745 96.443 C 403.745 97.188 384.378 96.867 382.532 97.052 C 381.594 97.146 375.953 121.273 375.385 123.808 C 374.219 129.014 371.321 127.66 394.432 127.224 C 415.398 126.829 422.155 127.238 423.046 128.193 C 423.688 128.881 438.616 153.916 439.636 154.449 C 442.525 155.958 441.162 156.443 455.701 156.443 L 471.134 156.443 L 471.134 81.943 L 471.134 7.443 L 456.634 7.443 L 442.134 7.443 L 442.112 54.693 C 442.09 101.399 442.068 101.914 440.18 99.458 M 561.899 37.193 L 561.634 66.943 L 520.884 67.204 C 498.471 67.348 480.134 67.74 480.134 68.074 C 480.134 68.409 481.294 70.542 482.711 72.813 C 488.798 82.568 494.714 92.182 495.743 93.992 C 496.801 95.855 498.317 95.955 529.493 96.207 L 562.134 96.47 L 562.134 125.957 L 562.134 155.443 L 576.634 155.443 L 591.134 155.443 L 591.134 81.443 L 591.134 7.443 L 576.649 7.443 L 562.164 7.443 L 561.899 37.193 M 13.134 141.943 L 13.134 156.443 L 80.067 156.443 C 146.999 156.443 145.465 156.75 147.331 154.623 C 148.186 153.649 163.134 128.494 163.134 127.968 C 163.134 127.679 129.384 127.443 88.134 127.443 L 13.134 127.443 L 13.134 141.943" stroke="none" fill="#000" fill-rule="evenodd"/>
  <path style="fill: rgb(0, 0, 0); fill-rule: evenodd;" d="M 305.096 126.151 L 347.238 56.964"/>
  <rect x="158.436" y="88.853" width="31.506" height="97.771" style="fill: rgb(0, 0, 0); fill-rule: evenodd;" transform="matrix(0.838009, 0.545657, -0.545657, 0.838009, 270.342839, -114.7884)"/>
  <rect x="89.603" y="82.188" width="17.818" height="90.437" style="fill: rgb(0, 0, 0); fill-rule: evenodd;" transform="matrix(0.8488, 0.528714, -0.528714, 0.8488, 340.039434, -101.685533)"/>
  <rect x="463.775" y="7.096" width="9.505" height="7.312" style="fill: rgb(0, 0, 0); fill-rule: evenodd;" transform="matrix(0.832056, 0.554692, -0.554692, 0.832056, -6.177688, -252.410297)" rx="1.024" ry="1.024"/>
  <rect x="386.958" y="14.416" width="11.035" height="47.696" style="fill: rgb(0, 0, 0); fill-rule: evenodd;" transform="matrix(0.85745, -0.514567, 0.533617, 0.846018, 31.269322, 203.722842)" rx="5.517" ry="5.517"/>
</svg>