<svg xmlns="http://www.w3.org/2000/svg" width="602" height="161" viewBox="0 0 602 161" fill="#ff4747" fill-rule="evenodd"><path d="M13.1 36.4c.1 34.1-1.5 46.4 4.9 53.6 3.8 4.3 9.9 5.2 13.4 5.4 10 .5.5 0 65.5.4l66.2-.4v-90h-29v61L42.6 66l-.2-30.2L42 5.4h-29v31m203-2c0 .6 23.5 1.1 61.4 1.3l61-.5c-.3-.4 17.6-26.8 17.6-27.9 0-1.8-1.8-1.9-62-1.9-60 0-61.7.6-62.5 1.7m149 .6c-4.8 0-6.5 6.7-6.5 6.8s3.4-2.4 3.7-1.6c.3 1 0 1.5-1.2 1.5-1 0-1.5.3-1.2.7s-.2 1.9-1.3 3.4-2 3.2-2 3.8-.9 1.6-2 2.2-1.8 1.4-1.5 2c.5.8-5 9.8-6.8 11-.4.4-.8 1-.9 1.6s-.4.7-1 .6-.6.1-.3.7c.8 1.4-1.3 5.3-2.5 4.5-.5-.3-.7.1-.4 1s.1 1.5-.5 1.5-1 .7-1 1.6c0 1-.5 1.3-1.2.8-.7-.4-1-.2-.5.4.4.6-.3 2.1-1.6 3.3s-1.6 2-.8 1.5.7 0-.4.9-1.5 1.6-1 1.6.1.6-.9 1.4-1.7 1.7-1.7 2.2c.2 1.2-4.3 8.3-5.2 8.3-.4 0-.8.7-.8 1.5s-1.2 2.9-2.7 4.7-2.7 3.3-2.5 3.3c1 .2-1.3 4.5-2.4 4.5-.8 0-1.2.5-.9 1s.2 1-.4 1-1 .4-.8.8c.3 1-3.5 7.2-4.5 7.2-.5 0-.7.4-.4.8s-.8 2.8-2.4 5.2-3 4.7-3 5.2-.6.8-1.4.8c-1 0-1.3.6-1 1.5.4.9 0 1.8-1 2.1-.8.4-1.6 1.5-1.6 2.5s-.8 2.4-1.7 3.1-2 2-2 2.8-1 2-1.8 2.6-1.2 1.4-.8 1.8-.2 1.5-1.2 2.6c-1.7 2-3 2-44.7 2-42.8 0-42.8 0-41.3-2.9.8-1.6 16.3-25 16.8-26 .8-1.9 1.4-2 29.4-2 27.7 0 29-.1 30.6-2 1-1.2 16-26.2 15.5-27-.1-.3-27.2-.5-60-.5-57.8 0-59.2.3-60.4 1.8l-14 22.9c-3.2 4.7-2.7 4.7 11.1 4.7 10.8 0 12.5.3 12.5 1.5 0 .9-35.2 56.2-35.9 57.4-1.1 2.1-1.1 2.1 77 2.1 65 0 78.3-.2 79.5-1.3.7-.8 57.2-93.3 57.8-92.6 1.8 2 21.2 33.3 21.2 34 0 .7-19.3.4-21.2.6-1 0-6.6 24.2-7.1 26.7-1.2 5.2-4 3.9 19 3.4 21-.4 27.7 0 28.6 1 .7.7 15.6 25.7 16.6 26.2 3 1.6 1.6 2 16.1 2h15.4V7.4h-29v47.3c0 46.7 0 47.2-2 44.8M562 37.2l-.3 29.7-40.7.3-40.8.9a27 27 0 0 0 2.6 4.7l13 21.2c1.1 1.9 2.6 2 33.8 2.2l32.6.3v59h29V7.4h-29l-.2 29.7M13 141.9v14.5h67c66.9 0 65.4.4 67.2-1.8.9-1 15.8-26.1 15.8-26.6 0-.3-33.7-.6-75-.6h-75V142m292-15.8L347.2 57"/><path d="M354.6 46.1 381 63.3l-53.3 82-26.4-17.2z"/><path d="m372.6 15.4 15.2 9.5-47.8 76.7-15.2-9.4z"/><rect width="9.5" height="7.3" x="463.8" y="7.1" rx="1" transform="rotate(33.7 413.7 -136.4)"/><rect width="11" height="47.7" x="387" y="14.4" rx="5.5" transform="matrix(.8575 -.5146 .5336 .846 31.3 203.7)"/></svg>